<svg width="512" height="512" viewBox="0 0 512 512" fill="none" xmlns="http://www.w3.org/2000/svg">
<path fill-rule="evenodd" clip-rule="evenodd" d="M186.4 110.048C119.496 97.864 66.592 110.608 45.504 147.136C29.768 174.384 34.264 210.52 56.408 249.136C57.3173 250.711 58.8132 251.862 60.5687 252.337C62.3242 252.812 64.1964 252.573 65.776 251.672C67.3511 250.763 68.502 249.267 68.9773 247.511C69.4525 245.756 69.2133 243.884 68.312 242.304C48.368 207.504 44.488 176.328 57.384 153.984C74.984 123.648 122.088 112.272 183.944 123.536C185.733 123.856 187.576 123.455 189.07 122.421C190.565 121.386 191.589 119.803 191.92 118.016C192.24 116.227 191.839 114.384 190.805 112.89C189.77 111.395 188.187 110.371 186.4 110.04V110.048ZM91.2 296C118.256 325.728 153.4 353.616 193.488 376.76C290.624 432.8 393.944 447.84 444.8 413.12C446.299 412.091 447.33 410.51 447.668 408.723C448.005 406.936 447.621 405.089 446.6 403.584C445.571 402.085 443.99 401.054 442.203 400.716C440.417 400.379 438.569 400.763 437.064 401.784C391.488 432.856 293.336 418.632 200.264 364.944C161.384 342.496 127.344 315.488 101.264 286.832C100.036 285.49 98.3272 284.688 96.5101 284.603C94.6931 284.517 92.9162 285.155 91.568 286.376C90.2257 287.604 89.4241 289.313 89.3386 291.13C89.2532 292.947 89.8908 294.724 91.112 296.072L91.2 296ZM428.624 287.736C472.432 235.976 487.728 183.928 466.688 147.496C451.208 120.68 418.48 106.52 374.976 105.96C373.158 105.941 371.407 106.642 370.104 107.91C368.801 109.178 368.053 110.91 368.024 112.728C368.005 114.546 368.706 116.297 369.974 117.6C371.242 118.903 372.974 119.65 374.792 119.68C413.992 120.192 442.112 132.384 454.792 154.36C472.272 184.632 458.632 231.048 418.136 278.888C416.964 280.279 416.39 282.077 416.54 283.889C416.69 285.702 417.551 287.381 418.936 288.56C420.327 289.732 422.125 290.306 423.937 290.156C425.75 290.006 427.429 289.145 428.608 287.76L428.624 287.736ZM316.032 112.32C276.432 120.8 234.256 137.4 193.768 160.776C93.576 218.616 28.216 304 37.28 365.76C37.549 367.558 38.5187 369.176 39.9772 370.262C41.4357 371.347 43.2645 371.811 45.064 371.552C46.862 371.283 48.4805 370.313 49.5657 368.855C50.651 367.396 51.1149 365.567 50.856 363.768C42.8 308.856 104.752 228.008 200.616 172.568C239.816 149.888 280.72 133.824 318.896 125.64C320.672 125.254 322.224 124.181 323.212 122.655C324.2 121.129 324.543 119.275 324.168 117.496C323.782 115.72 322.709 114.168 321.183 113.18C319.657 112.192 317.803 111.849 316.024 112.224L316.032 112.32Z" fill="#5C6BC0"/>
<path fill-rule="evenodd" clip-rule="evenodd" d="M153.72 408.656C176.624 472.616 214.096 512 256.24 512C286.976 512 315.408 491.04 337.576 454.16C338.509 452.599 338.786 450.733 338.347 448.968C337.907 447.204 336.788 445.685 335.232 444.744C333.671 443.811 331.805 443.534 330.04 443.973C328.276 444.413 326.757 445.532 325.816 447.088C305.816 480.232 281.416 498.264 256.24 498.264C221.24 498.264 187.816 463.064 166.64 404.024C166.022 402.314 164.752 400.917 163.107 400.141C161.463 399.364 159.578 399.271 157.864 399.88C156.154 400.498 154.757 401.768 153.981 403.413C153.204 405.057 153.111 406.942 153.72 408.656ZM362.944 396.144C374.8 358.248 381.168 314.544 381.168 268.984C381.168 155.32 341.384 57.336 284.72 32.184C283.056 31.4505 281.169 31.4057 279.472 32.0593C277.775 32.7129 276.406 34.0118 275.664 35.672C274.931 37.336 274.886 39.2228 275.539 40.9197C276.193 42.6167 277.492 43.9859 279.152 44.728C329.696 67.16 367.44 160.16 367.44 268.992C367.44 313.184 361.28 355.52 349.84 392.056C349.301 393.793 349.471 395.672 350.313 397.284C351.156 398.895 352.602 400.108 354.336 400.656C356.073 401.195 357.952 401.025 359.564 400.183C361.175 399.34 362.388 397.894 362.936 396.16L362.944 396.144ZM492.16 389.424C492.16 371.288 477.456 356.584 459.32 356.584C441.184 356.584 426.4 371.2 426.4 389.424C426.4 407.648 441.104 422.264 459.24 422.264C477.376 422.264 492.08 407.56 492.08 389.424H492.16ZM478.44 389.424C478.438 394.492 476.424 399.352 472.84 402.936C469.256 406.52 464.396 408.534 459.328 408.536C454.26 408.534 449.4 406.52 445.816 402.936C442.232 399.352 440.218 394.492 440.216 389.424C440.218 384.356 442.232 379.496 445.816 375.912C449.4 372.328 454.26 370.314 459.328 370.312C464.396 370.314 469.256 372.328 472.84 375.912C476.424 379.496 478.438 384.356 478.44 389.424V389.424Z" fill="#5C6BC0"/>
<path fill-rule="evenodd" clip-rule="evenodd" d="M50.836 422.264C68.972 422.264 83.676 407.56 83.676 389.424C83.676 371.288 68.972 356.584 50.836 356.584C42.1263 356.585 33.7737 360.046 27.6158 366.205C21.4578 372.365 17.9989 380.718 18 389.428C18.0011 398.138 21.462 406.49 27.6214 412.648C33.7809 418.806 42.1343 422.265 50.844 422.264H50.836ZM50.836 408.544C45.7678 408.542 40.9079 406.528 37.3241 402.944C33.7404 399.36 31.7261 394.5 31.724 389.432C31.7261 384.364 33.7404 379.504 37.3241 375.92C40.9079 372.336 45.7678 370.322 50.836 370.32C55.9042 370.322 60.7641 372.336 64.3479 375.92C67.9316 379.504 69.9459 384.364 69.948 389.432C69.9459 394.5 67.9316 399.36 64.3479 402.944C60.7641 406.528 55.9042 408.542 50.836 408.544ZM254.404 65.6C272.54 65.6 287.244 50.896 287.244 32.76C287.244 14.624 272.532 0 254.404 0C236.276 0 221.564 14.704 221.564 32.84C221.564 50.976 236.268 65.6 254.404 65.6ZM254.404 51.88C249.336 51.8779 244.476 49.8636 240.892 46.2799C237.308 42.6961 235.294 37.8362 235.292 32.768C235.294 27.6998 237.308 22.8399 240.892 19.2561C244.476 15.6724 249.336 13.6581 254.404 13.656C259.472 13.6581 264.332 15.6724 267.916 19.2561C271.5 22.8399 273.514 27.6998 273.516 32.768C273.514 37.8362 271.5 42.6961 267.916 46.2799C264.332 49.8636 259.472 51.8779 254.404 51.88ZM259.412 292.2C256.354 292.881 253.191 292.951 250.106 292.405C247.021 291.858 244.075 290.708 241.436 289.018C238.797 287.329 236.519 285.135 234.732 282.561C232.945 279.988 231.684 277.087 231.023 274.024C230.361 270.962 230.312 267.799 230.878 264.717C231.444 261.636 232.613 258.697 234.319 256.069C236.026 253.441 238.235 251.177 240.819 249.406C243.404 247.636 246.313 246.394 249.38 245.752C252.438 245.071 255.601 245.001 258.686 245.548C261.771 246.094 264.717 247.244 267.356 248.934C269.995 250.623 272.273 252.817 274.06 255.391C275.847 257.964 277.108 260.865 277.769 263.928C278.431 266.99 278.48 270.153 277.914 273.235C277.348 276.316 276.179 279.255 274.473 281.883C272.766 284.511 270.557 286.775 267.973 288.546C265.388 290.316 262.479 291.558 259.412 292.2Z" fill="#5C6BC0"/>
<path fill-rule="evenodd" clip-rule="evenodd" d="M335.526 264.173L244.358 355.389C239.868 359.881 232.587 359.883 228.095 355.393C226.667 353.965 225.64 352.187 225.117 350.237L191.694 225.582C190.049 219.447 193.689 213.141 199.823 211.496C201.775 210.972 203.831 210.973 205.783 211.497L330.373 244.937C336.508 246.583 340.146 252.89 338.499 259.025C337.977 260.972 336.951 262.747 335.526 264.173Z" fill="#9FA8DA"/>
<path fill-rule="evenodd" clip-rule="evenodd" d="M334.605 264.698L249.511 328.928C244.441 332.754 237.23 331.747 233.404 326.677C232.186 325.064 231.415 323.158 231.168 321.152L218.147 215.173C217.373 208.869 221.855 203.131 228.159 202.357C230.167 202.11 232.203 202.397 234.064 203.189L332.179 244.938C338.023 247.425 340.745 254.178 338.258 260.022C337.47 261.874 336.211 263.486 334.605 264.698Z" fill="#5C6BC0"/>
</svg>
